# xmcd
#
# Track frame offsets:
#	150
#	15560
#	31817
#	46617
#	58872
#	73402
#	85240
#	102587
#	118232
#	128962
#	146942
#	170452
#	186620
#	196602
#	213277
#
# Disc length: 3098 seconds
#
# Revision: 0
# Processed by: cddbd v1.5.2PL0 Copyright (c) Steve Scherf et al.
# Submitted via: audiograbber 1.83.01
#
DISCID=e10c180f
DTITLE=Jimi Hendrix - The Legendary Artists
DYEAR=1997
DGENRE=Blues
TTITLE0=Hey Joe
TTITLE1=Stone Free
TTITLE2=The Wind Cries Mary
TTITLE3=Purple Haze
TTITLE4=Foxy Lady
TTITLE5=Fire
TTITLE6=Red House
TTITLE7=Highway Chile
TTITLE8=Little Wing
TTITLE9=All Along The Watchtower
TTITLE10=Woodoo Chile
TTITLE11=Burning Of The Midnight Lamp
TTITLE12=Crosstown Traffic
TTITLE13=Gypsy Eyes
TTITLE14=Angel
EXTD=YEAR: 1997 ID3G: 0
EXTT0=
EXTT1=
EXTT2=
EXTT3=
EXTT4=
EXTT5=
EXTT6=
EXTT7=
EXTT8=
EXTT9=
EXTT10=
EXTT11=
EXTT12=
EXTT13=
EXTT14=
PLAYORDER=
